<svg width="16" height="16" viewBox="0 0 16 16" fill="none" xmlns="http://www.w3.org/2000/svg">
<path d="M11.3219 11.6304C11.2717 11.6304 11.2209 11.6147 11.1776 11.5823L10.3726 10.9797L9.75402 10.5964H6.24576L5.62065 10.9837L4.79007 11.5258C4.67844 11.5986 4.5291 11.5672 4.45626 11.4557C4.38341 11.3441 4.41483 11.1947 4.52639 11.1219L5.35932 10.5782C5.36093 10.5772 5.36254 10.5762 5.36411 10.5752L5.99669 10.1833C6.06985 10.1379 6.15391 10.114 6.23988 10.114H9.7599C9.84587 10.114 9.9299 10.1379 10.003 10.1832L10.6357 10.5752C10.6417 10.5789 10.6475 10.5829 10.6532 10.5871L11.4667 11.1961C11.5733 11.2759 11.5951 11.4271 11.5153 11.5337C11.4679 11.597 11.3953 11.6304 11.3219 11.6304V11.6304Z" fill="#FDD79B"/>
<path d="M11.6894 9.28797L12.672 15.7638C12.6909 15.8881 12.5946 16.0001 12.4689 16.0001H12.2293C12.1386 16.0001 12.0586 15.9406 12.0325 15.8538L10.06 9.288L9.45801 7.28174H11.416L11.6894 9.28797Z" fill="#FDDEB0"/>
<path d="M5.93965 9.28779L3.96711 15.8535C3.941 15.9404 3.86102 15.9999 3.7703 15.9999H3.53074C3.40497 15.9999 3.30871 15.8879 3.32756 15.7636L4.31016 9.28776L4.7107 7.28149L6.48459 7.51719L5.93965 9.28779Z" fill="#FDDEB0"/>
<path d="M12.6427 6.67761L11.9042 2.15857C11.7008 0.913905 10.6254 0 9.36425 0H6.6054C5.34346 0 4.2677 0.914967 4.06513 2.16053L3.32527 6.7098L3.14209 8.1535H12.9331L12.6427 6.67761Z" fill="#C59191"/>
<path d="M12.6427 6.67761L12.5282 5.97656C12.5101 5.97229 12.4921 5.96807 12.4738 5.96441C11.0669 5.68279 9.60741 5.53997 8.13602 5.53997C7.51207 5.53997 6.87866 5.56579 6.23894 5.61702C5.59698 5.66841 5.0767 5.10482 5.18006 4.46916L5.55552 2.1605C5.75809 0.914967 6.83386 0 8.09579 0H6.6054C5.34346 0 4.2677 0.914967 4.06513 2.16053L3.32527 6.7098L3.14209 8.1535H4.2733H4.63252H12.9331L12.6427 6.67761Z" fill="#B98080"/>
<path d="M11.69 9.28777L11.4165 7.28149H9.4585L10.0605 9.28777L10.2537 9.93099H11.7876L11.69 9.28777Z" fill="#FDD79B"/>
<path d="M5.9395 9.28777L6.48441 7.51719L4.71055 7.28149L4.30997 9.28777L4.2124 9.93099H5.74625L5.9395 9.28777Z" fill="#FDD79B"/>
<path d="M12.1526 9.28802H3.84717C3.30837 9.28802 2.87158 8.85123 2.87158 8.31243V7.5664C2.87158 7.09642 3.20668 6.69278 3.66875 6.60701C6.69134 6.04606 9.58421 6.04217 12.3473 6.59528C12.802 6.68629 13.1281 7.08764 13.1281 7.55138V8.31246C13.1282 8.85123 12.6914 9.28802 12.1526 9.28802V9.28802Z" fill="#C59191"/>
<path d="M5.40201 8.51163C4.86321 8.51163 4.42642 7.92388 4.42642 7.19885L4.42655 6.47729C4.17491 6.5165 3.92226 6.55962 3.66875 6.60667C3.20665 6.69244 2.87158 7.09607 2.87158 7.56605V8.31208C2.87158 8.85088 3.30837 9.28766 3.84717 9.28766H12.1526C12.623 9.28766 13.0157 8.95436 13.1078 8.51127L5.40201 8.51163Z" fill="#B98080"/>
</svg>
